solid OpenSCAD_Model
  facet normal -1 0 0
    outer loop
      vertex 247.4 11.8 0
      vertex 247.4 114.4 10
      vertex 247.4 114.4 0
    endloop
  endfacet
  facet normal -1 -0 0
    outer loop
      vertex 247.4 114.4 10
      vertex 247.4 11.8 0
      vertex 247.4 11.8 10
    endloop
  endfacet
  facet normal -1 0 0
    outer loop
      vertex 257.4 6.6 0
      vertex 257.4 11.8 10
      vertex 257.4 11.8 0
    endloop
  endfacet
  facet normal -1 -0 0
    outer loop
      vertex 257.4 11.8 10
      vertex 257.4 6.6 0
      vertex 257.4 6.6 10
    endloop
  endfacet
  facet normal 0 -1 0
    outer loop
      vertex 247.4 11.8 10
      vertex 253.266 11.8 6.5
      vertex 257.4 11.8 10
    endloop
  endfacet
  facet normal 0 -1 0
    outer loop
      vertex 247.4 11.8 10
      vertex 251.534 11.8 6.5
      vertex 253.266 11.8 6.5
    endloop
  endfacet
  facet normal 0 -1 0
    outer loop
      vertex 247.4 11.8 10
      vertex 250.668 11.8 5
      vertex 251.534 11.8 6.5
    endloop
  endfacet
  facet normal 0 -1 0
    outer loop
      vertex 247.4 11.8 0
      vertex 250.668 11.8 5
      vertex 247.4 11.8 10
    endloop
  endfacet
  facet normal 0 -1 -0
    outer loop
      vertex 251.534 11.8 3.5
      vertex 247.4 11.8 0
      vertex 253.266 11.8 3.5
    endloop
  endfacet
  facet normal 0 -1 -0
    outer loop
      vertex 250.668 11.8 5
      vertex 247.4 11.8 0
      vertex 251.534 11.8 3.5
    endloop
  endfacet
  facet normal 0 -1 0
    outer loop
      vertex 254.132 11.8 5
      vertex 257.4 11.8 10
      vertex 253.266 11.8 6.5
    endloop
  endfacet
  facet normal 0 -1 0
    outer loop
      vertex 257.4 11.8 0
      vertex 254.132 11.8 5
      vertex 253.266 11.8 3.5
    endloop
  endfacet
  facet normal 0 -1 0
    outer loop
      vertex 254.132 11.8 5
      vertex 257.4 11.8 0
      vertex 257.4 11.8 10
    endloop
  endfacet
  facet normal 0 -1 0
    outer loop
      vertex 257.4 11.8 0
      vertex 253.266 11.8 3.5
      vertex 247.4 11.8 0
    endloop
  endfacet
  facet normal -1 0 0
    outer loop
      vertex 257.4 114.4 0
      vertex 257.4 119.6 10
      vertex 257.4 119.6 0
    endloop
  endfacet
  facet normal -1 -0 0
    outer loop
      vertex 257.4 119.6 10
      vertex 257.4 114.4 0
      vertex 257.4 114.4 10
    endloop
  endfacet
  facet normal 0 1 0
    outer loop
      vertex 257.4 114.4 10
      vertex 253.266 114.4 6.5
      vertex 247.4 114.4 10
    endloop
  endfacet
  facet normal 0 1 0
    outer loop
      vertex 257.4 114.4 10
      vertex 254.132 114.4 5
      vertex 253.266 114.4 6.5
    endloop
  endfacet
  facet normal 0 1 -0
    outer loop
      vertex 257.4 114.4 0
      vertex 254.132 114.4 5
      vertex 257.4 114.4 10
    endloop
  endfacet
  facet normal 0 1 0
    outer loop
      vertex 253.266 114.4 3.5
      vertex 257.4 114.4 0
      vertex 251.534 114.4 3.5
    endloop
  endfacet
  facet normal 0 1 0
    outer loop
      vertex 254.132 114.4 5
      vertex 257.4 114.4 0
      vertex 253.266 114.4 3.5
    endloop
  endfacet
  facet normal 0 1 -0
    outer loop
      vertex 251.534 114.4 6.5
      vertex 247.4 114.4 10
      vertex 253.266 114.4 6.5
    endloop
  endfacet
  facet normal 0 1 -0
    outer loop
      vertex 250.668 114.4 5
      vertex 247.4 114.4 10
      vertex 251.534 114.4 6.5
    endloop
  endfacet
  facet normal 0 1 0
    outer loop
      vertex 247.4 114.4 0
      vertex 250.668 114.4 5
      vertex 251.534 114.4 3.5
    endloop
  endfacet
  facet normal 0 1 0
    outer loop
      vertex 250.668 114.4 5
      vertex 247.4 114.4 0
      vertex 247.4 114.4 10
    endloop
  endfacet
  facet normal 0 1 0
    outer loop
      vertex 247.4 114.4 0
      vertex 251.534 114.4 3.5
      vertex 257.4 114.4 0
    endloop
  endfacet
  facet normal 0.866025 0 -0.500001
    outer loop
      vertex 251.534 11.8 6.5
      vertex 250.668 18.6 5
      vertex 251.534 18.6 6.5
    endloop
  endfacet
  facet normal 0.866025 0 -0.500001
    outer loop
      vertex 250.668 18.6 5
      vertex 251.534 11.8 6.5
      vertex 250.668 11.8 5
    endloop
  endfacet
  facet normal 5.50607e-07 0 -1
    outer loop
      vertex 251.534 11.8 6.5
      vertex 253.266 18.6 6.5
      vertex 253.266 11.8 6.5
    endloop
  endfacet
  facet normal 5.50607e-07 0 -1
    outer loop
      vertex 253.266 18.6 6.5
      vertex 251.534 11.8 6.5
      vertex 251.534 18.6 6.5
    endloop
  endfacet
  facet normal -0.866025 0 -0.500001
    outer loop
      vertex 254.132 11.8 5
      vertex 253.266 18.6 6.5
      vertex 254.132 18.6 5
    endloop
  endfacet
  facet normal -0.866025 -0 -0.500001
    outer loop
      vertex 253.266 18.6 6.5
      vertex 254.132 11.8 5
      vertex 253.266 11.8 6.5
    endloop
  endfacet
  facet normal 0.866025 -0 0.500001
    outer loop
      vertex 250.668 11.8 5
      vertex 251.534 18.6 3.5
      vertex 250.668 18.6 5
    endloop
  endfacet
  facet normal 0.866025 0 0.500001
    outer loop
      vertex 251.534 18.6 3.5
      vertex 250.668 11.8 5
      vertex 251.534 11.8 3.5
    endloop
  endfacet
  facet normal 0 -1 0
    outer loop
      vertex 250.668 18.6 5
      vertex 253.266 18.6 6.5
      vertex 251.534 18.6 6.5
    endloop
  endfacet
  facet normal 0 -1 0
    outer loop
      vertex 250.668 18.6 5
      vertex 254.132 18.6 5
      vertex 253.266 18.6 6.5
    endloop
  endfacet
  facet normal 0 -1 0
    outer loop
      vertex 251.534 18.6 3.5
      vertex 254.132 18.6 5
      vertex 250.668 18.6 5
    endloop
  endfacet
  facet normal 0 -1 0
    outer loop
      vertex 254.132 18.6 5
      vertex 251.534 18.6 3.5
      vertex 253.266 18.6 3.5
    endloop
  endfacet
  facet normal -0 0 1
    outer loop
      vertex 251.534 18.6 3.5
      vertex 253.266 11.8 3.5
      vertex 253.266 18.6 3.5
    endloop
  endfacet
  facet normal 0 0 1
    outer loop
      vertex 253.266 11.8 3.5
      vertex 251.534 18.6 3.5
      vertex 251.534 11.8 3.5
    endloop
  endfacet
  facet normal -0.866025 0 0.500001
    outer loop
      vertex 253.266 11.8 3.5
      vertex 254.132 18.6 5
      vertex 253.266 18.6 3.5
    endloop
  endfacet
  facet normal -0.866025 0 0.500001
    outer loop
      vertex 254.132 18.6 5
      vertex 253.266 11.8 3.5
      vertex 254.132 11.8 5
    endloop
  endfacet
  facet normal 0.866025 0 -0.500001
    outer loop
      vertex 251.534 107.6 6.5
      vertex 250.668 114.4 5
      vertex 251.534 114.4 6.5
    endloop
  endfacet
  facet normal 0.866025 0 -0.500001
    outer loop
      vertex 250.668 114.4 5
      vertex 251.534 107.6 6.5
      vertex 250.668 107.6 5
    endloop
  endfacet
  facet normal 5.50607e-07 0 -1
    outer loop
      vertex 251.534 107.6 6.5
      vertex 253.266 114.4 6.5
      vertex 253.266 107.6 6.5
    endloop
  endfacet
  facet normal 5.50607e-07 0 -1
    outer loop
      vertex 253.266 114.4 6.5
      vertex 251.534 107.6 6.5
      vertex 251.534 114.4 6.5
    endloop
  endfacet
  facet normal -0.866025 0 -0.500001
    outer loop
      vertex 254.132 107.6 5
      vertex 253.266 114.4 6.5
      vertex 254.132 114.4 5
    endloop
  endfacet
  facet normal -0.866025 -0 -0.500001
    outer loop
      vertex 253.266 114.4 6.5
      vertex 254.132 107.6 5
      vertex 253.266 107.6 6.5
    endloop
  endfacet
  facet normal 0.866025 -0 0.500001
    outer loop
      vertex 250.668 107.6 5
      vertex 251.534 114.4 3.5
      vertex 250.668 114.4 5
    endloop
  endfacet
  facet normal 0.866025 0 0.500001
    outer loop
      vertex 251.534 114.4 3.5
      vertex 250.668 107.6 5
      vertex 251.534 107.6 3.5
    endloop
  endfacet
  facet normal 0 1 0
    outer loop
      vertex 254.132 107.6 5
      vertex 251.534 107.6 6.5
      vertex 253.266 107.6 6.5
    endloop
  endfacet
  facet normal 0 1 0
    outer loop
      vertex 254.132 107.6 5
      vertex 250.668 107.6 5
      vertex 251.534 107.6 6.5
    endloop
  endfacet
  facet normal 0 1 -0
    outer loop
      vertex 253.266 107.6 3.5
      vertex 250.668 107.6 5
      vertex 254.132 107.6 5
    endloop
  endfacet
  facet normal 0 1 0
    outer loop
      vertex 250.668 107.6 5
      vertex 253.266 107.6 3.5
      vertex 251.534 107.6 3.5
    endloop
  endfacet
  facet normal -0 0 1
    outer loop
      vertex 251.534 114.4 3.5
      vertex 253.266 107.6 3.5
      vertex 253.266 114.4 3.5
    endloop
  endfacet
  facet normal 0 0 1
    outer loop
      vertex 253.266 107.6 3.5
      vertex 251.534 114.4 3.5
      vertex 251.534 107.6 3.5
    endloop
  endfacet
  facet normal -0.866025 0 0.500001
    outer loop
      vertex 253.266 107.6 3.5
      vertex 254.132 114.4 5
      vertex 253.266 114.4 3.5
    endloop
  endfacet
  facet normal -0.866025 0 0.500001
    outer loop
      vertex 254.132 114.4 5
      vertex 253.266 107.6 3.5
      vertex 254.132 107.6 5
    endloop
  endfacet
  facet normal -0.500003 0.866024 0
    outer loop
      vertex 309.55 22.35 10
      vertex 306.519 20.6 15
      vertex 309.55 22.35 15
    endloop
  endfacet
  facet normal -0.500003 0.866024 0
    outer loop
      vertex 306.519 20.6 15
      vertex 309.55 22.35 10
      vertex 306.519 20.6 10
    endloop
  endfacet
  facet normal -0.500003 -0.866024 0
    outer loop
      vertex 306.519 17.1 10
      vertex 309.55 15.35 15
      vertex 306.519 17.1 15
    endloop
  endfacet
  facet normal -0.500003 -0.866024 -0
    outer loop
      vertex 309.55 15.35 15
      vertex 306.519 17.1 10
      vertex 309.55 15.35 10
    endloop
  endfacet
  facet normal -1 0 0
    outer loop
      vertex 306.519 17.1 10
      vertex 306.519 20.6 15
      vertex 306.519 20.6 10
    endloop
  endfacet
  facet normal -1 -0 0
    outer loop
      vertex 306.519 20.6 15
      vertex 306.519 17.1 10
      vertex 306.519 17.1 15
    endloop
  endfacet
  facet normal 0 0 1
    outer loop
      vertex 312.581 20.6 15
      vertex 310.849 19.6 15
      vertex 312.581 17.1 15
    endloop
  endfacet
  facet normal 0 0 1
    outer loop
      vertex 309.55 22.35 15
      vertex 310.849 19.6 15
      vertex 312.581 20.6 15
    endloop
  endfacet
  facet normal 0 0 1
    outer loop
      vertex 309.55 22.35 15
      vertex 309.55 20.35 15
      vertex 310.849 19.6 15
    endloop
  endfacet
  facet normal 0 0 1
    outer loop
      vertex 309.55 22.35 15
      vertex 308.251 19.6 15
      vertex 309.55 20.35 15
    endloop
  endfacet
  facet normal 0 0 1
    outer loop
      vertex 308.251 19.6 15
      vertex 306.519 20.6 15
      vertex 308.251 18.1 15
    endloop
  endfacet
  facet normal -0 0 1
    outer loop
      vertex 306.519 20.6 15
      vertex 308.251 19.6 15
      vertex 309.55 22.35 15
    endloop
  endfacet
  facet normal -0 0 1
    outer loop
      vertex 310.849 18.1 15
      vertex 312.581 17.1 15
      vertex 310.849 19.6 15
    endloop
  endfacet
  facet normal -0 0 1
    outer loop
      vertex 309.55 17.35 15
      vertex 312.581 17.1 15
      vertex 310.849 18.1 15
    endloop
  endfacet
  facet normal 0 0 1
    outer loop
      vertex 309.55 17.35 15
      vertex 309.55 15.35 15
      vertex 312.581 17.1 15
    endloop
  endfacet
  facet normal 0 0 1
    outer loop
      vertex 308.251 18.1 15
      vertex 309.55 15.35 15
      vertex 309.55 17.35 15
    endloop
  endfacet
  facet normal 0 0 1
    outer loop
      vertex 306.519 17.1 15
      vertex 308.251 18.1 15
      vertex 306.519 20.6 15
    endloop
  endfacet
  facet normal 0 0 1
    outer loop
      vertex 308.251 18.1 15
      vertex 306.519 17.1 15
      vertex 309.55 15.35 15
    endloop
  endfacet
  facet normal 0.499999 0.866026 -0
    outer loop
      vertex 312.581 20.6 10
      vertex 309.55 22.35 15
      vertex 312.581 20.6 15
    endloop
  endfacet
  facet normal 0.499999 0.866026 0
    outer loop
      vertex 309.55 22.35 15
      vertex 312.581 20.6 10
      vertex 309.55 22.35 10
    endloop
  endfacet
  facet normal 1 -0 0
    outer loop
      vertex 312.581 17.1 15
      vertex 312.581 20.6 10
      vertex 312.581 20.6 15
    endloop
  endfacet
  facet normal 1 0 0
    outer loop
      vertex 312.581 20.6 10
      vertex 312.581 17.1 15
      vertex 312.581 17.1 10
    endloop
  endfacet
  facet normal 0.499999 -0.866026 0
    outer loop
      vertex 309.55 15.35 10
      vertex 312.581 17.1 15
      vertex 309.55 15.35 15
    endloop
  endfacet
  facet normal 0.499999 -0.866026 0
    outer loop
      vertex 312.581 17.1 15
      vertex 309.55 15.35 10
      vertex 312.581 17.1 10
    endloop
  endfacet
  facet normal -0.500001 0.866025 0
    outer loop
      vertex 256.25 22.35 10
      vertex 253.219 20.6 15
      vertex 256.25 22.35 15
    endloop
  endfacet
  facet normal -0.500001 0.866025 0
    outer loop
      vertex 253.219 20.6 15
      vertex 256.25 22.35 10
      vertex 253.219 20.6 10
    endloop
  endfacet
  facet normal -0.500001 -0.866025 0
    outer loop
      vertex 253.219 17.1 10
      vertex 256.25 15.35 15
      vertex 253.219 17.1 15
    endloop
  endfacet
  facet normal -0.500001 -0.866025 -0
    outer loop
      vertex 256.25 15.35 15
      vertex 253.219 17.1 10
      vertex 256.25 15.35 10
    endloop
  endfacet
  facet normal -1 0 0
    outer loop
      vertex 253.219 17.1 10
      vertex 253.219 20.6 15
      vertex 253.219 20.6 10
    endloop
  endfacet
  facet normal -1 -0 0
    outer loop
      vertex 253.219 20.6 15
      vertex 253.219 17.1 10
      vertex 253.219 17.1 15
    endloop
  endfacet
  facet normal 0.499999 -0.866026 0
    outer loop
      vertex 256.25 15.35 10
      vertex 259.281 17.1 15
      vertex 256.25 15.35 15
    endloop
  endfacet
  facet normal 0.499999 -0.866026 0
    outer loop
      vertex 259.281 17.1 15
      vertex 256.25 15.35 10
      vertex 259.281 17.1 10
    endloop
  endfacet
  facet normal 0 0 1
    outer loop
      vertex 259.281 20.6 15
      vertex 257.549 19.6 15
      vertex 259.281 17.1 15
    endloop
  endfacet
  facet normal 0 0 1
    outer loop
      vertex 256.25 22.35 15
      vertex 257.549 19.6 15
      vertex 259.281 20.6 15
    endloop
  endfacet
  facet normal 0 0 1
    outer loop
      vertex 256.25 22.35 15
      vertex 256.25 20.35 15
      vertex 257.549 19.6 15
    endloop
  endfacet
  facet normal 0 0 1
    outer loop
      vertex 256.25 22.35 15
      vertex 254.951 19.6 15
      vertex 256.25 20.35 15
    endloop
  endfacet
  facet normal 0 0 1
    outer loop
      vertex 254.951 19.6 15
      vertex 253.219 20.6 15
      vertex 254.951 18.1 15
    endloop
  endfacet
  facet normal -0 0 1
    outer loop
      vertex 253.219 20.6 15
      vertex 254.951 19.6 15
      vertex 256.25 22.35 15
    endloop
  endfacet
  facet normal -0 0 1
    outer loop
      vertex 257.549 18.1 15
      vertex 259.281 17.1 15
      vertex 257.549 19.6 15
    endloop
  endfacet
  facet normal -0 0 1
    outer loop
      vertex 256.25 17.35 15
      vertex 259.281 17.1 15
      vertex 257.549 18.1 15
    endloop
  endfacet
  facet normal 0 0 1
    outer loop
      vertex 256.25 17.35 15
      vertex 256.25 15.35 15
      vertex 259.281 17.1 15
    endloop
  endfacet
  facet normal 0 0 1
    outer loop
      vertex 254.951 18.1 15
      vertex 256.25 15.35 15
      vertex 256.25 17.35 15
    endloop
  endfacet
  facet normal 0 0 1
    outer loop
      vertex 253.219 17.1 15
      vertex 254.951 18.1 15
      vertex 253.219 20.6 15
    endloop
  endfacet
  facet normal 0 0 1
    outer loop
      vertex 254.951 18.1 15
      vertex 253.219 17.1 15
      vertex 256.25 15.35 15
    endloop
  endfacet
  facet normal 0.499999 0.866026 -0
    outer loop
      vertex 259.281 20.6 10
      vertex 256.25 22.35 15
      vertex 259.281 20.6 15
    endloop
  endfacet
  facet normal 0.499999 0.866026 0
    outer loop
      vertex 256.25 22.35 15
      vertex 259.281 20.6 10
      vertex 256.25 22.35 10
    endloop
  endfacet
  facet normal 1 -0 0
    outer loop
      vertex 259.281 17.1 15
      vertex 259.281 20.6 10
      vertex 259.281 20.6 15
    endloop
  endfacet
  facet normal 1 0 0
    outer loop
      vertex 259.281 20.6 10
      vertex 259.281 17.1 15
      vertex 259.281 17.1 10
    endloop
  endfacet
  facet normal -0.500003 0.866024 0
    outer loop
      vertex 309.55 54.65 10
      vertex 306.519 52.9 15
      vertex 309.55 54.65 15
    endloop
  endfacet
  facet normal -0.500003 0.866024 0
    outer loop
      vertex 306.519 52.9 15
      vertex 309.55 54.65 10
      vertex 306.519 52.9 10
    endloop
  endfacet
  facet normal -0.500003 -0.866024 0
    outer loop
      vertex 306.519 49.4 10
      vertex 309.55 47.65 15
      vertex 306.519 49.4 15
    endloop
  endfacet
  facet normal -0.500003 -0.866024 -0
    outer loop
      vertex 309.55 47.65 15
      vertex 306.519 49.4 10
      vertex 309.55 47.65 10
    endloop
  endfacet
  facet normal -1 0 0
    outer loop
      vertex 306.519 49.4 10
      vertex 306.519 52.9 15
      vertex 306.519 52.9 10
    endloop
  endfacet
  facet normal -1 -0 0
    outer loop
      vertex 306.519 52.9 15
      vertex 306.519 49.4 10
      vertex 306.519 49.4 15
    endloop
  endfacet
  facet normal 0 0 1
    outer loop
      vertex 312.581 52.9 15
      vertex 310.849 51.9 15
      vertex 312.581 49.4 15
    endloop
  endfacet
  facet normal 0 0 1
    outer loop
      vertex 309.55 54.65 15
      vertex 310.849 51.9 15
      vertex 312.581 52.9 15
    endloop
  endfacet
  facet normal 0 0 1
    outer loop
      vertex 309.55 54.65 15
      vertex 309.55 52.65 15
      vertex 310.849 51.9 15
    endloop
  endfacet
  facet normal 0 0 1
    outer loop
      vertex 309.55 54.65 15
      vertex 308.251 51.9 15
      vertex 309.55 52.65 15
    endloop
  endfacet
  facet normal 0 0 1
    outer loop
      vertex 308.251 51.9 15
      vertex 306.519 52.9 15
      vertex 308.251 50.4 15
    endloop
  endfacet
  facet normal -0 0 1
    outer loop
      vertex 306.519 52.9 15
      vertex 308.251 51.9 15
      vertex 309.55 54.65 15
    endloop
  endfacet
  facet normal -0 0 1
    outer loop
      vertex 310.849 50.4 15
      vertex 312.581 49.4 15
      vertex 310.849 51.9 15
    endloop
  endfacet
  facet normal -0 0 1
    outer loop
      vertex 309.55 49.65 15
      vertex 312.581 49.4 15
      vertex 310.849 50.4 15
    endloop
  endfacet
  facet normal 0 0 1
    outer loop
      vertex 309.55 49.65 15
      vertex 309.55 47.65 15
      vertex 312.581 49.4 15
    endloop
  endfacet
  facet normal 0 0 1
    outer loop
      vertex 308.251 50.4 15
      vertex 309.55 47.65 15
      vertex 309.55 49.65 15
    endloop
  endfacet
  facet normal 0 0 1
    outer loop
      vertex 306.519 49.4 15
      vertex 308.251 50.4 15
      vertex 306.519 52.9 15
    endloop
  endfacet
  facet normal 0 0 1
    outer loop
      vertex 308.251 50.4 15
      vertex 306.519 49.4 15
      vertex 309.55 47.65 15
    endloop
  endfacet
  facet normal 1 -0 0
    outer loop
      vertex 312.581 49.4 15
      vertex 312.581 52.9 10
      vertex 312.581 52.9 15
    endloop
  endfacet
  facet normal 1 0 0
    outer loop
      vertex 312.581 52.9 10
      vertex 312.581 49.4 15
      vertex 312.581 49.4 10
    endloop
  endfacet
  facet normal 0.499999 -0.866026 0
    outer loop
      vertex 309.55 47.65 10
      vertex 312.581 49.4 15
      vertex 309.55 47.65 15
    endloop
  endfacet
  facet normal 0.499999 -0.866026 0
    outer loop
      vertex 312.581 49.4 15
      vertex 309.55 47.65 10
      vertex 312.581 49.4 10
    endloop
  endfacet
  facet normal 0.499999 0.866026 -0
    outer loop
      vertex 312.581 52.9 10
      vertex 309.55 54.65 15
      vertex 312.581 52.9 15
    endloop
  endfacet
  facet normal 0.499999 0.866026 0
    outer loop
      vertex 309.55 54.65 15
      vertex 312.581 52.9 10
      vertex 309.55 54.65 10
    endloop
  endfacet
  facet normal -0.500001 0.866025 0
    outer loop
      vertex 256.25 54.65 10
      vertex 253.219 52.9 15
      vertex 256.25 54.65 15
    endloop
  endfacet
  facet normal -0.500001 0.866025 0
    outer loop
      vertex 253.219 52.9 15
      vertex 256.25 54.65 10
      vertex 253.219 52.9 10
    endloop
  endfacet
  facet normal -0.500001 -0.866025 0
    outer loop
      vertex 253.219 49.4 10
      vertex 256.25 47.65 15
      vertex 253.219 49.4 15
    endloop
  endfacet
  facet normal -0.500001 -0.866025 -0
    outer loop
      vertex 256.25 47.65 15
      vertex 253.219 49.4 10
      vertex 256.25 47.65 10
    endloop
  endfacet
  facet normal -1 0 0
    outer loop
      vertex 253.219 49.4 10
      vertex 253.219 52.9 15
      vertex 253.219 52.9 10
    endloop
  endfacet
  facet normal -1 -0 0
    outer loop
      vertex 253.219 52.9 15
      vertex 253.219 49.4 10
      vertex 253.219 49.4 15
    endloop
  endfacet
  facet normal 0 0 1
    outer loop
      vertex 259.281 52.9 15
      vertex 257.549 51.9 15
      vertex 259.281 49.4 15
    endloop
  endfacet
  facet normal 0 0 1
    outer loop
      vertex 256.25 54.65 15
      vertex 257.549 51.9 15
      vertex 259.281 52.9 15
    endloop
  endfacet
  facet normal 0 0 1
    outer loop
      vertex 256.25 54.65 15
      vertex 256.25 52.65 15
      vertex 257.549 51.9 15
    endloop
  endfacet
  facet normal 0 0 1
    outer loop
      vertex 256.25 54.65 15
      vertex 254.951 51.9 15
      vertex 256.25 52.65 15
    endloop
  endfacet
  facet normal 0 0 1
    outer loop
      vertex 254.951 51.9 15
      vertex 253.219 52.9 15
      vertex 254.951 50.4 15
    endloop
  endfacet
  facet normal -0 0 1
    outer loop
      vertex 253.219 52.9 15
      vertex 254.951 51.9 15
      vertex 256.25 54.65 15
    endloop
  endfacet
  facet normal -0 0 1
    outer loop
      vertex 257.549 50.4 15
      vertex 259.281 49.4 15
      vertex 257.549 51.9 15
    endloop
  endfacet
  facet normal -0 0 1
    outer loop
      vertex 256.25 49.65 15
      vertex 259.281 49.4 15
      vertex 257.549 50.4 15
    endloop
  endfacet
  facet normal 0 0 1
    outer loop
      vertex 256.25 49.65 15
      vertex 256.25 47.65 15
      vertex 259.281 49.4 15
    endloop
  endfacet
  facet normal 0 0 1
    outer loop
      vertex 254.951 50.4 15
      vertex 256.25 47.65 15
      vertex 256.25 49.65 15
    endloop
  endfacet
  facet normal 0 0 1
    outer loop
      vertex 253.219 49.4 15
      vertex 254.951 50.4 15
      vertex 253.219 52.9 15
    endloop
  endfacet
  facet normal 0 0 1
    outer loop
      vertex 254.951 50.4 15
      vertex 253.219 49.4 15
      vertex 256.25 47.65 15
    endloop
  endfacet
  facet normal 1 -0 0
    outer loop
      vertex 259.281 49.4 15
      vertex 259.281 52.9 10
      vertex 259.281 52.9 15
    endloop
  endfacet
  facet normal 1 0 0
    outer loop
      vertex 259.281 52.9 10
      vertex 259.281 49.4 15
      vertex 259.281 49.4 10
    endloop
  endfacet
  facet normal 0.499999 -0.866026 0
    outer loop
      vertex 256.25 47.65 10
      vertex 259.281 49.4 15
      vertex 256.25 47.65 15
    endloop
  endfacet
  facet normal 0.499999 -0.866026 0
    outer loop
      vertex 259.281 49.4 15
      vertex 256.25 47.65 10
      vertex 259.281 49.4 10
    endloop
  endfacet
  facet normal 0.499999 0.866026 -0
    outer loop
      vertex 259.281 52.9 10
      vertex 256.25 54.65 15
      vertex 259.281 52.9 15
    endloop
  endfacet
  facet normal 0.499999 0.866026 0
    outer loop
      vertex 256.25 54.65 15
      vertex 259.281 52.9 10
      vertex 256.25 54.65 10
    endloop
  endfacet
  facet normal 0 0 1
    outer loop
      vertex 256.25 20.35 10
      vertex 257.549 18.1 10
      vertex 257.549 19.6 10
    endloop
  endfacet
  facet normal 0 0 1
    outer loop
      vertex 256.25 20.35 10
      vertex 256.25 17.35 10
      vertex 257.549 18.1 10
    endloop
  endfacet
  facet normal -0 0 1
    outer loop
      vertex 254.951 19.6 10
      vertex 256.25 17.35 10
      vertex 256.25 20.35 10
    endloop
  endfacet
  facet normal 0 0 1
    outer loop
      vertex 256.25 17.35 10
      vertex 254.951 19.6 10
      vertex 254.951 18.1 10
    endloop
  endfacet
  facet normal 0 0 1
    outer loop
      vertex 256.25 52.65 10
      vertex 257.549 50.4 10
      vertex 257.549 51.9 10
    endloop
  endfacet
  facet normal 0 0 1
    outer loop
      vertex 256.25 52.65 10
      vertex 256.25 49.65 10
      vertex 257.549 50.4 10
    endloop
  endfacet
  facet normal -0 0 1
    outer loop
      vertex 254.951 51.9 10
      vertex 256.25 49.65 10
      vertex 256.25 52.65 10
    endloop
  endfacet
  facet normal 0 0 1
    outer loop
      vertex 256.25 49.65 10
      vertex 254.951 51.9 10
      vertex 254.951 50.4 10
    endloop
  endfacet
  facet normal 0 0 1
    outer loop
      vertex 309.55 20.35 10
      vertex 310.849 18.1 10
      vertex 310.849 19.6 10
    endloop
  endfacet
  facet normal 0 0 1
    outer loop
      vertex 309.55 20.35 10
      vertex 309.55 17.35 10
      vertex 310.849 18.1 10
    endloop
  endfacet
  facet normal -0 0 1
    outer loop
      vertex 308.251 19.6 10
      vertex 309.55 17.35 10
      vertex 309.55 20.35 10
    endloop
  endfacet
  facet normal 0 0 1
    outer loop
      vertex 309.55 17.35 10
      vertex 308.251 19.6 10
      vertex 308.251 18.1 10
    endloop
  endfacet
  facet normal 0 0 1
    outer loop
      vertex 309.55 52.65 10
      vertex 310.849 50.4 10
      vertex 310.849 51.9 10
    endloop
  endfacet
  facet normal 0 0 1
    outer loop
      vertex 309.55 52.65 10
      vertex 309.55 49.65 10
      vertex 310.849 50.4 10
    endloop
  endfacet
  facet normal -0 0 1
    outer loop
      vertex 308.251 51.9 10
      vertex 309.55 49.65 10
      vertex 309.55 52.65 10
    endloop
  endfacet
  facet normal 0 0 1
    outer loop
      vertex 309.55 49.65 10
      vertex 308.251 51.9 10
      vertex 308.251 50.4 10
    endloop
  endfacet
  facet normal -0 0 1
    outer loop
      vertex 256.25 15.35 10
      vertex 257.4 11.8 10
      vertex 259.281 17.1 10
    endloop
  endfacet
  facet normal 0 0 1
    outer loop
      vertex 253.219 17.1 10
      vertex 257.4 11.8 10
      vertex 256.25 15.35 10
    endloop
  endfacet
  facet normal 0 0 1
    outer loop
      vertex 253.219 17.1 10
      vertex 247.4 11.8 10
      vertex 257.4 11.8 10
    endloop
  endfacet
  facet normal 0 0 1
    outer loop
      vertex 253.219 20.6 10
      vertex 247.4 11.8 10
      vertex 253.219 17.1 10
    endloop
  endfacet
  facet normal -0 0 1
    outer loop
      vertex 256.25 47.65 10
      vertex 259.281 20.6 10
      vertex 259.281 49.4 10
    endloop
  endfacet
  facet normal 0 0 1
    outer loop
      vertex 256.25 47.65 10
      vertex 256.25 22.35 10
      vertex 259.281 20.6 10
    endloop
  endfacet
  facet normal 0 0 1
    outer loop
      vertex 253.219 49.4 10
      vertex 256.25 22.35 10
      vertex 256.25 47.65 10
    endloop
  endfacet
  facet normal 0 0 1
    outer loop
      vertex 256.25 22.35 10
      vertex 253.219 49.4 10
      vertex 253.219 20.6 10
    endloop
  endfacet
  facet normal 0 0 1
    outer loop
      vertex 257.4 114.4 10
      vertex 308.4 114.4 10
      vertex 308.4 119.6 10
    endloop
  endfacet
  facet normal -0 0 1
    outer loop
      vertex 259.281 49.4 10
      vertex 306.519 49.4 10
      vertex 306.519 52.9 10
    endloop
  endfacet
  facet normal 0 0 1
    outer loop
      vertex 306.519 49.4 10
      vertex 259.281 49.4 10
      vertex 306.519 20.6 10
    endloop
  endfacet
  facet normal 0 0 1
    outer loop
      vertex 259.281 49.4 10
      vertex 306.519 52.9 10
      vertex 259.281 52.9 10
    endloop
  endfacet
  facet normal 0 0 1
    outer loop
      vertex 308.4 114.4 10
      vertex 257.4 114.4 10
      vertex 306.519 52.9 10
    endloop
  endfacet
  facet normal 0 0 1
    outer loop
      vertex 257.4 114.4 10
      vertex 308.4 119.6 10
      vertex 257.4 119.6 10
    endloop
  endfacet
  facet normal 0 0 1
    outer loop
      vertex 306.519 52.9 10
      vertex 257.4 114.4 10
      vertex 259.281 52.9 10
    endloop
  endfacet
  facet normal 0 0 1
    outer loop
      vertex 257.4 114.4 10
      vertex 256.25 54.65 10
      vertex 259.281 52.9 10
    endloop
  endfacet
  facet normal -0 0 1
    outer loop
      vertex 247.4 114.4 10
      vertex 256.25 54.65 10
      vertex 257.4 114.4 10
    endloop
  endfacet
  facet normal 0 0 1
    outer loop
      vertex 247.4 11.8 10
      vertex 253.219 52.9 10
      vertex 247.4 114.4 10
    endloop
  endfacet
  facet normal 0 0 1
    outer loop
      vertex 253.219 52.9 10
      vertex 247.4 11.8 10
      vertex 253.219 49.4 10
    endloop
  endfacet
  facet normal 0 0 1
    outer loop
      vertex 253.219 49.4 10
      vertex 247.4 11.8 10
      vertex 253.219 20.6 10
    endloop
  endfacet
  facet normal 0 0 1
    outer loop
      vertex 256.25 54.65 10
      vertex 247.4 114.4 10
      vertex 253.219 52.9 10
    endloop
  endfacet
  facet normal -0 0 1
    outer loop
      vertex 309.55 47.65 10
      vertex 312.581 20.6 10
      vertex 312.581 49.4 10
    endloop
  endfacet
  facet normal 0 0 1
    outer loop
      vertex 309.55 47.65 10
      vertex 309.55 22.35 10
      vertex 312.581 20.6 10
    endloop
  endfacet
  facet normal 0 0 1
    outer loop
      vertex 306.519 49.4 10
      vertex 309.55 22.35 10
      vertex 309.55 47.65 10
    endloop
  endfacet
  facet normal 0 0 1
    outer loop
      vertex 309.55 22.35 10
      vertex 306.519 49.4 10
      vertex 306.519 20.6 10
    endloop
  endfacet
  facet normal 0 0 1
    outer loop
      vertex 318.4 114.4 10
      vertex 312.581 52.9 10
      vertex 318.4 11.8 10
    endloop
  endfacet
  facet normal 0 0 1
    outer loop
      vertex 318.4 114.4 10
      vertex 309.55 54.65 10
      vertex 312.581 52.9 10
    endloop
  endfacet
  facet normal -0 0 1
    outer loop
      vertex 308.4 114.4 10
      vertex 309.55 54.65 10
      vertex 318.4 114.4 10
    endloop
  endfacet
  facet normal 0 0 1
    outer loop
      vertex 309.55 54.65 10
      vertex 308.4 114.4 10
      vertex 306.519 52.9 10
    endloop
  endfacet
  facet normal -0 0 1
    outer loop
      vertex 312.581 49.4 10
      vertex 318.4 11.8 10
      vertex 312.581 52.9 10
    endloop
  endfacet
  facet normal -0 0 1
    outer loop
      vertex 312.581 20.6 10
      vertex 318.4 11.8 10
      vertex 312.581 49.4 10
    endloop
  endfacet
  facet normal -0 0 1
    outer loop
      vertex 312.581 17.1 10
      vertex 318.4 11.8 10
      vertex 312.581 20.6 10
    endloop
  endfacet
  facet normal -0 0 1
    outer loop
      vertex 309.55 15.35 10
      vertex 318.4 11.8 10
      vertex 312.581 17.1 10
    endloop
  endfacet
  facet normal 0 0 1
    outer loop
      vertex 309.55 15.35 10
      vertex 308.4 11.8 10
      vertex 318.4 11.8 10
    endloop
  endfacet
  facet normal 0 0 1
    outer loop
      vertex 306.519 17.1 10
      vertex 308.4 11.8 10
      vertex 309.55 15.35 10
    endloop
  endfacet
  facet normal 0 0 1
    outer loop
      vertex 306.519 17.1 10
      vertex 308.4 6.6 10
      vertex 308.4 11.8 10
    endloop
  endfacet
  facet normal -0 0 1
    outer loop
      vertex 259.281 20.6 10
      vertex 306.519 20.6 10
      vertex 259.281 49.4 10
    endloop
  endfacet
  facet normal 0 0 1
    outer loop
      vertex 306.519 20.6 10
      vertex 259.281 20.6 10
      vertex 306.519 17.1 10
    endloop
  endfacet
  facet normal -0 0 1
    outer loop
      vertex 259.281 17.1 10
      vertex 306.519 17.1 10
      vertex 259.281 20.6 10
    endloop
  endfacet
  facet normal 0 0 1
    outer loop
      vertex 306.519 17.1 10
      vertex 259.281 17.1 10
      vertex 308.4 6.6 10
    endloop
  endfacet
  facet normal 0 0 1
    outer loop
      vertex 257.4 6.6 10
      vertex 259.281 17.1 10
      vertex 257.4 11.8 10
    endloop
  endfacet
  facet normal 0 0 1
    outer loop
      vertex 259.281 17.1 10
      vertex 257.4 6.6 10
      vertex 308.4 6.6 10
    endloop
  endfacet
  facet normal 0.500008 -0.866021 0
    outer loop
      vertex 308.251 19.6 10
      vertex 309.55 20.35 15
      vertex 308.251 19.6 15
    endloop
  endfacet
  facet normal 0.500008 -0.866021 0
    outer loop
      vertex 309.55 20.35 15
      vertex 308.251 19.6 10
      vertex 309.55 20.35 10
    endloop
  endfacet
  facet normal 0.500008 0.866021 -0
    outer loop
      vertex 309.55 17.35 10
      vertex 308.251 18.1 15
      vertex 309.55 17.35 15
    endloop
  endfacet
  facet normal 0.500008 0.866021 0
    outer loop
      vertex 308.251 18.1 15
      vertex 309.55 17.35 10
      vertex 308.251 18.1 10
    endloop
  endfacet
  facet normal 1 -0 0
    outer loop
      vertex 308.251 18.1 15
      vertex 308.251 19.6 10
      vertex 308.251 19.6 15
    endloop
  endfacet
  facet normal 1 0 0
    outer loop
      vertex 308.251 19.6 10
      vertex 308.251 18.1 15
      vertex 308.251 18.1 10
    endloop
  endfacet
  facet normal -0.499999 0.866026 0
    outer loop
      vertex 310.849 18.1 10
      vertex 309.55 17.35 15
      vertex 310.849 18.1 15
    endloop
  endfacet
  facet normal -0.499999 0.866026 0
    outer loop
      vertex 309.55 17.35 15
      vertex 310.849 18.1 10
      vertex 309.55 17.35 10
    endloop
  endfacet
  facet normal -0.499999 -0.866026 0
    outer loop
      vertex 309.55 20.35 10
      vertex 310.849 19.6 15
      vertex 309.55 20.35 15
    endloop
  endfacet
  facet normal -0.499999 -0.866026 -0
    outer loop
      vertex 310.849 19.6 15
      vertex 309.55 20.35 10
      vertex 310.849 19.6 10
    endloop
  endfacet
  facet normal -1 0 0
    outer loop
      vertex 310.849 18.1 10
      vertex 310.849 19.6 15
      vertex 310.849 19.6 10
    endloop
  endfacet
  facet normal -1 -0 0
    outer loop
      vertex 310.849 19.6 15
      vertex 310.849 18.1 10
      vertex 310.849 18.1 15
    endloop
  endfacet
  facet normal 0.499999 -0.866026 0
    outer loop
      vertex 254.951 19.6 10
      vertex 256.25 20.35 15
      vertex 254.951 19.6 15
    endloop
  endfacet
  facet normal 0.499999 -0.866026 0
    outer loop
      vertex 256.25 20.35 15
      vertex 254.951 19.6 10
      vertex 256.25 20.35 10
    endloop
  endfacet
  facet normal 0.499999 0.866026 -0
    outer loop
      vertex 256.25 17.35 10
      vertex 254.951 18.1 15
      vertex 256.25 17.35 15
    endloop
  endfacet
  facet normal 0.499999 0.866026 0
    outer loop
      vertex 254.951 18.1 15
      vertex 256.25 17.35 10
      vertex 254.951 18.1 10
    endloop
  endfacet
  facet normal 1 -0 0
    outer loop
      vertex 254.951 18.1 15
      vertex 254.951 19.6 10
      vertex 254.951 19.6 15
    endloop
  endfacet
  facet normal 1 0 0
    outer loop
      vertex 254.951 19.6 10
      vertex 254.951 18.1 15
      vertex 254.951 18.1 10
    endloop
  endfacet
  facet normal -0.499999 0.866026 0
    outer loop
      vertex 257.549 18.1 10
      vertex 256.25 17.35 15
      vertex 257.549 18.1 15
    endloop
  endfacet
  facet normal -0.499999 0.866026 0
    outer loop
      vertex 256.25 17.35 15
      vertex 257.549 18.1 10
      vertex 256.25 17.35 10
    endloop
  endfacet
  facet normal -1 0 0
    outer loop
      vertex 257.549 18.1 10
      vertex 257.549 19.6 15
      vertex 257.549 19.6 10
    endloop
  endfacet
  facet normal -1 -0 0
    outer loop
      vertex 257.549 19.6 15
      vertex 257.549 18.1 10
      vertex 257.549 18.1 15
    endloop
  endfacet
  facet normal -0.499999 -0.866026 0
    outer loop
      vertex 256.25 20.35 10
      vertex 257.549 19.6 15
      vertex 256.25 20.35 15
    endloop
  endfacet
  facet normal -0.499999 -0.866026 -0
    outer loop
      vertex 257.549 19.6 15
      vertex 256.25 20.35 10
      vertex 257.549 19.6 10
    endloop
  endfacet
  facet normal 0.500008 -0.866021 0
    outer loop
      vertex 308.251 51.9 10
      vertex 309.55 52.65 15
      vertex 308.251 51.9 15
    endloop
  endfacet
  facet normal 0.500008 -0.866021 0
    outer loop
      vertex 309.55 52.65 15
      vertex 308.251 51.9 10
      vertex 309.55 52.65 10
    endloop
  endfacet
  facet normal 0.500008 0.866021 -0
    outer loop
      vertex 309.55 49.65 10
      vertex 308.251 50.4 15
      vertex 309.55 49.65 15
    endloop
  endfacet
  facet normal 0.500008 0.866021 0
    outer loop
      vertex 308.251 50.4 15
      vertex 309.55 49.65 10
      vertex 308.251 50.4 10
    endloop
  endfacet
  facet normal 1 -0 0
    outer loop
      vertex 308.251 50.4 15
      vertex 308.251 51.9 10
      vertex 308.251 51.9 15
    endloop
  endfacet
  facet normal 1 0 0
    outer loop
      vertex 308.251 51.9 10
      vertex 308.251 50.4 15
      vertex 308.251 50.4 10
    endloop
  endfacet
  facet normal -1 0 0
    outer loop
      vertex 310.849 50.4 10
      vertex 310.849 51.9 15
      vertex 310.849 51.9 10
    endloop
  endfacet
  facet normal -1 -0 0
    outer loop
      vertex 310.849 51.9 15
      vertex 310.849 50.4 10
      vertex 310.849 50.4 15
    endloop
  endfacet
  facet normal -0.499999 0.866026 0
    outer loop
      vertex 310.849 50.4 10
      vertex 309.55 49.65 15
      vertex 310.849 50.4 15
    endloop
  endfacet
  facet normal -0.499999 0.866026 0
    outer loop
      vertex 309.55 49.65 15
      vertex 310.849 50.4 10
      vertex 309.55 49.65 10
    endloop
  endfacet
  facet normal -0.499999 -0.866026 0
    outer loop
      vertex 309.55 52.65 10
      vertex 310.849 51.9 15
      vertex 309.55 52.65 15
    endloop
  endfacet
  facet normal -0.499999 -0.866026 -0
    outer loop
      vertex 310.849 51.9 15
      vertex 309.55 52.65 10
      vertex 310.849 51.9 10
    endloop
  endfacet
  facet normal 0.499999 -0.866026 0
    outer loop
      vertex 254.951 51.9 10
      vertex 256.25 52.65 15
      vertex 254.951 51.9 15
    endloop
  endfacet
  facet normal 0.499999 -0.866026 0
    outer loop
      vertex 256.25 52.65 15
      vertex 254.951 51.9 10
      vertex 256.25 52.65 10
    endloop
  endfacet
  facet normal 0.499999 0.866026 -0
    outer loop
      vertex 256.25 49.65 10
      vertex 254.951 50.4 15
      vertex 256.25 49.65 15
    endloop
  endfacet
  facet normal 0.499999 0.866026 0
    outer loop
      vertex 254.951 50.4 15
      vertex 256.25 49.65 10
      vertex 254.951 50.4 10
    endloop
  endfacet
  facet normal 1 -0 0
    outer loop
      vertex 254.951 50.4 15
      vertex 254.951 51.9 10
      vertex 254.951 51.9 15
    endloop
  endfacet
  facet normal 1 0 0
    outer loop
      vertex 254.951 51.9 10
      vertex 254.951 50.4 15
      vertex 254.951 50.4 10
    endloop
  endfacet
  facet normal -1 0 0
    outer loop
      vertex 257.549 50.4 10
      vertex 257.549 51.9 15
      vertex 257.549 51.9 10
    endloop
  endfacet
  facet normal -1 -0 0
    outer loop
      vertex 257.549 51.9 15
      vertex 257.549 50.4 10
      vertex 257.549 50.4 15
    endloop
  endfacet
  facet normal -0.499999 0.866026 0
    outer loop
      vertex 257.549 50.4 10
      vertex 256.25 49.65 15
      vertex 257.549 50.4 15
    endloop
  endfacet
  facet normal -0.499999 0.866026 0
    outer loop
      vertex 256.25 49.65 15
      vertex 257.549 50.4 10
      vertex 256.25 49.65 10
    endloop
  endfacet
  facet normal -0.499999 -0.866026 0
    outer loop
      vertex 256.25 52.65 10
      vertex 257.549 51.9 15
      vertex 256.25 52.65 15
    endloop
  endfacet
  facet normal -0.499999 -0.866026 -0
    outer loop
      vertex 257.549 51.9 15
      vertex 256.25 52.65 10
      vertex 257.549 51.9 10
    endloop
  endfacet
  facet normal 1 -0 0
    outer loop
      vertex 318.4 11.8 10
      vertex 318.4 114.4 0
      vertex 318.4 114.4 10
    endloop
  endfacet
  facet normal 1 0 0
    outer loop
      vertex 318.4 114.4 0
      vertex 318.4 11.8 10
      vertex 318.4 11.8 0
    endloop
  endfacet
  facet normal 0 1 -0
    outer loop
      vertex 308.4 119.6 0
      vertex 257.4 119.6 10
      vertex 308.4 119.6 10
    endloop
  endfacet
  facet normal 0 1 0
    outer loop
      vertex 257.4 119.6 10
      vertex 308.4 119.6 0
      vertex 257.4 119.6 0
    endloop
  endfacet
  facet normal 0 0 -1
    outer loop
      vertex 247.4 11.8 0
      vertex 257.4 114.4 0
      vertex 257.4 11.8 0
    endloop
  endfacet
  facet normal -0 0 -1
    outer loop
      vertex 257.4 114.4 0
      vertex 247.4 11.8 0
      vertex 247.4 114.4 0
    endloop
  endfacet
  facet normal 0 0 -1
    outer loop
      vertex 257.4 11.8 0
      vertex 308.4 11.8 0
      vertex 308.4 6.6 0
    endloop
  endfacet
  facet normal 0 0 -1
    outer loop
      vertex 308.4 11.8 0
      vertex 257.4 11.8 0
      vertex 308.4 114.4 0
    endloop
  endfacet
  facet normal 0 0 -1
    outer loop
      vertex 257.4 11.8 0
      vertex 308.4 6.6 0
      vertex 257.4 6.6 0
    endloop
  endfacet
  facet normal 0 0 -1
    outer loop
      vertex 257.4 114.4 0
      vertex 308.4 114.4 0
      vertex 257.4 11.8 0
    endloop
  endfacet
  facet normal 0 0 -1
    outer loop
      vertex 308.4 114.4 0
      vertex 257.4 114.4 0
      vertex 308.4 119.6 0
    endloop
  endfacet
  facet normal -0 0 -1
    outer loop
      vertex 308.4 119.6 0
      vertex 257.4 114.4 0
      vertex 257.4 119.6 0
    endloop
  endfacet
  facet normal 0 0 -1
    outer loop
      vertex 308.4 11.8 0
      vertex 318.4 114.4 0
      vertex 318.4 11.8 0
    endloop
  endfacet
  facet normal -0 0 -1
    outer loop
      vertex 318.4 114.4 0
      vertex 308.4 11.8 0
      vertex 308.4 114.4 0
    endloop
  endfacet
  facet normal 0 -1 0
    outer loop
      vertex 257.4 6.6 0
      vertex 308.4 6.6 10
      vertex 257.4 6.6 10
    endloop
  endfacet
  facet normal 0 -1 -0
    outer loop
      vertex 308.4 6.6 10
      vertex 257.4 6.6 0
      vertex 308.4 6.6 0
    endloop
  endfacet
  facet normal 1 -0 0
    outer loop
      vertex 308.4 6.6 10
      vertex 308.4 11.8 0
      vertex 308.4 11.8 10
    endloop
  endfacet
  facet normal 1 0 0
    outer loop
      vertex 308.4 11.8 0
      vertex 308.4 6.6 10
      vertex 308.4 6.6 0
    endloop
  endfacet
  facet normal 0 -1 0
    outer loop
      vertex 308.4 11.8 10
      vertex 314.266 11.8 6.5
      vertex 318.4 11.8 10
    endloop
  endfacet
  facet normal 0 -1 0
    outer loop
      vertex 308.4 11.8 10
      vertex 312.534 11.8 6.5
      vertex 314.266 11.8 6.5
    endloop
  endfacet
  facet normal 0 -1 0
    outer loop
      vertex 308.4 11.8 10
      vertex 311.668 11.8 5
      vertex 312.534 11.8 6.5
    endloop
  endfacet
  facet normal 0 -1 0
    outer loop
      vertex 308.4 11.8 0
      vertex 311.668 11.8 5
      vertex 308.4 11.8 10
    endloop
  endfacet
  facet normal 0 -1 -0
    outer loop
      vertex 312.534 11.8 3.5
      vertex 308.4 11.8 0
      vertex 314.266 11.8 3.5
    endloop
  endfacet
  facet normal 0 -1 -0
    outer loop
      vertex 311.668 11.8 5
      vertex 308.4 11.8 0
      vertex 312.534 11.8 3.5
    endloop
  endfacet
  facet normal 0 -1 0
    outer loop
      vertex 315.132 11.8 5
      vertex 318.4 11.8 10
      vertex 314.266 11.8 6.5
    endloop
  endfacet
  facet normal 0 -1 0
    outer loop
      vertex 318.4 11.8 0
      vertex 315.132 11.8 5
      vertex 314.266 11.8 3.5
    endloop
  endfacet
  facet normal 0 -1 0
    outer loop
      vertex 315.132 11.8 5
      vertex 318.4 11.8 0
      vertex 318.4 11.8 10
    endloop
  endfacet
  facet normal 0 -1 0
    outer loop
      vertex 318.4 11.8 0
      vertex 314.266 11.8 3.5
      vertex 308.4 11.8 0
    endloop
  endfacet
  facet normal 1 -0 0
    outer loop
      vertex 308.4 114.4 10
      vertex 308.4 119.6 0
      vertex 308.4 119.6 10
    endloop
  endfacet
  facet normal 1 0 0
    outer loop
      vertex 308.4 119.6 0
      vertex 308.4 114.4 10
      vertex 308.4 114.4 0
    endloop
  endfacet
  facet normal 0 1 0
    outer loop
      vertex 318.4 114.4 10
      vertex 314.266 114.4 6.5
      vertex 308.4 114.4 10
    endloop
  endfacet
  facet normal 0 1 0
    outer loop
      vertex 318.4 114.4 10
      vertex 315.132 114.4 5
      vertex 314.266 114.4 6.5
    endloop
  endfacet
  facet normal 0 1 -0
    outer loop
      vertex 318.4 114.4 0
      vertex 315.132 114.4 5
      vertex 318.4 114.4 10
    endloop
  endfacet
  facet normal 0 1 0
    outer loop
      vertex 314.266 114.4 3.5
      vertex 318.4 114.4 0
      vertex 312.534 114.4 3.5
    endloop
  endfacet
  facet normal 0 1 0
    outer loop
      vertex 315.132 114.4 5
      vertex 318.4 114.4 0
      vertex 314.266 114.4 3.5
    endloop
  endfacet
  facet normal 0 1 -0
    outer loop
      vertex 312.534 114.4 6.5
      vertex 308.4 114.4 10
      vertex 314.266 114.4 6.5
    endloop
  endfacet
  facet normal 0 1 -0
    outer loop
      vertex 311.668 114.4 5
      vertex 308.4 114.4 10
      vertex 312.534 114.4 6.5
    endloop
  endfacet
  facet normal 0 1 0
    outer loop
      vertex 308.4 114.4 0
      vertex 311.668 114.4 5
      vertex 312.534 114.4 3.5
    endloop
  endfacet
  facet normal 0 1 0
    outer loop
      vertex 311.668 114.4 5
      vertex 308.4 114.4 0
      vertex 308.4 114.4 10
    endloop
  endfacet
  facet normal 0 1 0
    outer loop
      vertex 308.4 114.4 0
      vertex 312.534 114.4 3.5
      vertex 318.4 114.4 0
    endloop
  endfacet
  facet normal 0.866025 0 -0.500001
    outer loop
      vertex 312.534 11.8 6.5
      vertex 311.668 18.6 5
      vertex 312.534 18.6 6.5
    endloop
  endfacet
  facet normal 0.866025 0 -0.500001
    outer loop
      vertex 311.668 18.6 5
      vertex 312.534 11.8 6.5
      vertex 311.668 11.8 5
    endloop
  endfacet
  facet normal 5.50603e-07 0 -1
    outer loop
      vertex 312.534 11.8 6.5
      vertex 314.266 18.6 6.5
      vertex 314.266 11.8 6.5
    endloop
  endfacet
  facet normal 5.50603e-07 0 -1
    outer loop
      vertex 314.266 18.6 6.5
      vertex 312.534 11.8 6.5
      vertex 312.534 18.6 6.5
    endloop
  endfacet
  facet normal -0.866025 0 -0.500001
    outer loop
      vertex 315.132 11.8 5
      vertex 314.266 18.6 6.5
      vertex 315.132 18.6 5
    endloop
  endfacet
  facet normal -0.866025 -0 -0.500001
    outer loop
      vertex 314.266 18.6 6.5
      vertex 315.132 11.8 5
      vertex 314.266 11.8 6.5
    endloop
  endfacet
  facet normal 0.866025 -0 0.500001
    outer loop
      vertex 311.668 11.8 5
      vertex 312.534 18.6 3.5
      vertex 311.668 18.6 5
    endloop
  endfacet
  facet normal 0.866025 0 0.500001
    outer loop
      vertex 312.534 18.6 3.5
      vertex 311.668 11.8 5
      vertex 312.534 11.8 3.5
    endloop
  endfacet
  facet normal 0 -1 0
    outer loop
      vertex 311.668 18.6 5
      vertex 314.266 18.6 6.5
      vertex 312.534 18.6 6.5
    endloop
  endfacet
  facet normal 0 -1 0
    outer loop
      vertex 311.668 18.6 5
      vertex 315.132 18.6 5
      vertex 314.266 18.6 6.5
    endloop
  endfacet
  facet normal 0 -1 0
    outer loop
      vertex 312.534 18.6 3.5
      vertex 315.132 18.6 5
      vertex 311.668 18.6 5
    endloop
  endfacet
  facet normal 0 -1 0
    outer loop
      vertex 315.132 18.6 5
      vertex 312.534 18.6 3.5
      vertex 314.266 18.6 3.5
    endloop
  endfacet
  facet normal -0 0 1
    outer loop
      vertex 312.534 18.6 3.5
      vertex 314.266 11.8 3.5
      vertex 314.266 18.6 3.5
    endloop
  endfacet
  facet normal 0 0 1
    outer loop
      vertex 314.266 11.8 3.5
      vertex 312.534 18.6 3.5
      vertex 312.534 11.8 3.5
    endloop
  endfacet
  facet normal -0.866025 0 0.500001
    outer loop
      vertex 314.266 11.8 3.5
      vertex 315.132 18.6 5
      vertex 314.266 18.6 3.5
    endloop
  endfacet
  facet normal -0.866025 0 0.500001
    outer loop
      vertex 315.132 18.6 5
      vertex 314.266 11.8 3.5
      vertex 315.132 11.8 5
    endloop
  endfacet
  facet normal 0.866025 0 -0.500001
    outer loop
      vertex 312.534 107.6 6.5
      vertex 311.668 114.4 5
      vertex 312.534 114.4 6.5
    endloop
  endfacet
  facet normal 0.866025 0 -0.500001
    outer loop
      vertex 311.668 114.4 5
      vertex 312.534 107.6 6.5
      vertex 311.668 107.6 5
    endloop
  endfacet
  facet normal 5.50603e-07 0 -1
    outer loop
      vertex 312.534 107.6 6.5
      vertex 314.266 114.4 6.5
      vertex 314.266 107.6 6.5
    endloop
  endfacet
  facet normal 5.50603e-07 0 -1
    outer loop
      vertex 314.266 114.4 6.5
      vertex 312.534 107.6 6.5
      vertex 312.534 114.4 6.5
    endloop
  endfacet
  facet normal -0.866025 0 -0.500001
    outer loop
      vertex 315.132 107.6 5
      vertex 314.266 114.4 6.5
      vertex 315.132 114.4 5
    endloop
  endfacet
  facet normal -0.866025 -0 -0.500001
    outer loop
      vertex 314.266 114.4 6.5
      vertex 315.132 107.6 5
      vertex 314.266 107.6 6.5
    endloop
  endfacet
  facet normal 0.866025 -0 0.500001
    outer loop
      vertex 311.668 107.6 5
      vertex 312.534 114.4 3.5
      vertex 311.668 114.4 5
    endloop
  endfacet
  facet normal 0.866025 0 0.500001
    outer loop
      vertex 312.534 114.4 3.5
      vertex 311.668 107.6 5
      vertex 312.534 107.6 3.5
    endloop
  endfacet
  facet normal 0 1 0
    outer loop
      vertex 315.132 107.6 5
      vertex 312.534 107.6 6.5
      vertex 314.266 107.6 6.5
    endloop
  endfacet
  facet normal 0 1 0
    outer loop
      vertex 315.132 107.6 5
      vertex 311.668 107.6 5
      vertex 312.534 107.6 6.5
    endloop
  endfacet
  facet normal 0 1 -0
    outer loop
      vertex 314.266 107.6 3.5
      vertex 311.668 107.6 5
      vertex 315.132 107.6 5
    endloop
  endfacet
  facet normal 0 1 0
    outer loop
      vertex 311.668 107.6 5
      vertex 314.266 107.6 3.5
      vertex 312.534 107.6 3.5
    endloop
  endfacet
  facet normal -0 0 1
    outer loop
      vertex 312.534 114.4 3.5
      vertex 314.266 107.6 3.5
      vertex 314.266 114.4 3.5
    endloop
  endfacet
  facet normal 0 0 1
    outer loop
      vertex 314.266 107.6 3.5
      vertex 312.534 114.4 3.5
      vertex 312.534 107.6 3.5
    endloop
  endfacet
  facet normal -0.866025 0 0.500001
    outer loop
      vertex 314.266 107.6 3.5
      vertex 315.132 114.4 5
      vertex 314.266 114.4 3.5
    endloop
  endfacet
  facet normal -0.866025 0 0.500001
    outer loop
      vertex 315.132 114.4 5
      vertex 314.266 107.6 3.5
      vertex 315.132 107.6 5
    endloop
  endfacet
endsolid OpenSCAD_Model
